<svg width="18" height="16" viewBox="0 0 18 16" fill="none" xmlns="http://www.w3.org/2000/svg">
<path d="M17.214 0.171657C16.4017 -0.265709 15.4957 0.577782 14.9646 1.07763C13.7463 2.26477 12.7154 3.63934 11.5594 4.88896C10.2786 6.26354 9.09145 7.63812 7.77935 8.98151C7.02958 9.73128 6.21733 10.5435 5.71748 11.4807C4.59282 10.3873 3.62437 9.20014 2.37475 8.23174C1.46878 7.54445 -0.03076 7.0446 0.000480451 8.70035C0.0629613 10.856 1.96863 13.1678 3.37445 14.636C3.96802 15.2608 4.74903 15.9169 5.655 15.9481C6.74841 16.0106 7.87307 14.6985 8.52912 13.98C9.68507 12.7304 10.6223 11.3245 11.6844 10.0437C13.059 8.3567 14.4648 6.70091 15.8081 4.98268C16.6516 3.92051 19.3071 1.29626 17.214 0.171657ZM1.37501 8.57538C1.34377 8.57538 1.31253 8.57538 1.25005 8.60657C1.12509 8.57538 1.03136 8.54409 0.906402 8.48161C1.00012 8.41913 1.15633 8.45037 1.37501 8.57538Z" fill="black"/>
</svg>
